<svg width="64" height="64" viewBox="0 0 64 64" fill="none" xmlns="http://www.w3.org/2000/svg">
  <rect width="64" height="64" rx="18" fill="#21130a"/>
  <rect x="10" y="10" width="44" height="44" rx="14" fill="url(#lockGradient)"/>
  <path d="M23 31H41C43.21 31 45 32.79 45 35V43C45 45.21 43.21 47 41 47H23C20.79 47 19 45.21 19 43V35C19 32.79 20.79 31 23 31Z" fill="#21130a"/>
  <path d="M25 31V26.8C25 22.94 28.13 19.8 32 19.8C35.87 19.8 39 22.94 39 26.8V31H35V26.8C35 25.15 33.66 23.8 32 23.8C30.34 23.8 29 25.15 29 26.8V31H25Z" fill="#21130a"/>
  <circle cx="32" cy="39" r="3.2" fill="#ffcf24"/>
  <defs>
    <linearGradient id="lockGradient" x1="10" y1="10" x2="54" y2="54" gradientUnits="userSpaceOnUse">
      <stop stop-color="#ffcf24"/>
      <stop offset="0.55" stop-color="#c87918"/>
      <stop offset="1" stop-color="#5b3218"/>
    </linearGradient>
  </defs>
</svg>
