<svg width="220" height="64" viewBox="0 0 220 64" fill="none" xmlns="http://www.w3.org/2000/svg">
  <rect width="220" height="64" rx="18" fill="#21130a"/>
  <rect x="10" y="10" width="44" height="44" rx="14" fill="url(#lockinMark)"/>
  <path d="M23 31H41C43.21 31 45 32.79 45 35V43C45 45.21 43.21 47 41 47H23C20.79 47 19 45.21 19 43V35C19 32.79 20.79 31 23 31Z" fill="#21130a"/>
  <path d="M25 31V26.8C25 22.94 28.13 19.8 32 19.8C35.87 19.8 39 22.94 39 26.8V31H35V26.8C35 25.15 33.66 23.8 32 23.8C30.34 23.8 29 25.15 29 26.8V31H25Z" fill="#21130a"/>
  <circle cx="32" cy="39" r="3.2" fill="#ffcf24"/>
  <path d="M72 42V22H78.8V36.5H88.1V42H72Z" fill="#fff7dc"/>
  <path d="M100.7 42.4C94.15 42.4 89.5 38.05 89.5 32C89.5 25.95 94.15 21.6 100.7 21.6C107.25 21.6 111.9 25.95 111.9 32C111.9 38.05 107.25 42.4 100.7 42.4ZM100.7 36.65C103.25 36.65 105 34.72 105 32C105 29.28 103.25 27.35 100.7 27.35C98.15 27.35 96.4 29.28 96.4 32C96.4 34.72 98.15 36.65 100.7 36.65Z" fill="#fff7dc"/>
  <path d="M125.1 42.4C118.75 42.4 114 38.15 114 32C114 25.85 118.75 21.6 125.1 21.6C129.7 21.6 133.35 23.85 134.9 27.55L129.4 30.15C128.72 28.35 127.18 27.35 125.15 27.35C122.6 27.35 120.9 29.25 120.9 32C120.9 34.75 122.6 36.65 125.15 36.65C127.18 36.65 128.72 35.65 129.4 33.85L134.9 36.45C133.35 40.15 129.7 42.4 125.1 42.4Z" fill="#fff7dc"/>
  <path d="M137.7 42V22H144.5V29.65L151 22H158.9L150.75 31.15L159.35 42H151.25L146.25 35.5L144.5 37.45V42H137.7Z" fill="#fff7dc"/>
  <path d="M162.1 42V22H168.9V42H162.1Z" fill="#ffcf24"/>
  <path d="M173.2 42V22H178.9L186.8 31.8V22H193.1V42H187.45L179.5 31.95V42H173.2Z" fill="#ffcf24"/>
  <defs>
    <linearGradient id="lockinMark" x1="10" y1="10" x2="54" y2="54" gradientUnits="userSpaceOnUse">
      <stop stop-color="#ffcf24"/>
      <stop offset="0.55" stop-color="#c87918"/>
      <stop offset="1" stop-color="#5b3218"/>
    </linearGradient>
  </defs>
</svg>
